{
  "accessors": [
    {
      "bufferView": 2,
      "componentType": 5126,
      "count": 64541,
      "max": [
        6.006651401519775,
        2.9811248779296875,
        1.5028629302978516
      ],
      "min": [
        -6.072070598602295,
        -0.001045555924065411,
        -0.8980083465576172
      ],
      "type": "VEC3"
    },
    {
      "bufferView": 2,
      "byteOffset": 774492,
      "componentType": 5126,
      "count": 64541,
      "max": [
        0.9999929070472717,
        0.9999979734420776,
        0.8098253607749939
      ],
      "min": [
        -0.9999650120735168,
        -0.9999997615814209,
        -0.9999989867210388
      ],
      "type": "VEC3"
    },
    {
      "bufferView": 1,
      "componentType": 5126,
      "count": 64541,
      "max": [
        0.9897199869155884,
        0.9920250177383423
      ],
      "min": [
        0.007943999953567982,
        0.00807201862335205
      ],
      "type": "VEC2"
    },
    {
      "bufferView": 0,
      "componentType": 5125,
      "count": 359343,
      "type": "SCALAR"
    },
    {
      "bufferView": 2,
      "byteOffset": 1548984,
      "componentType": 5126,
      "count": 62205,
      "max": [
        6.073321342468262,
        2.984194755554199,
        1.5028629302978516
      ],
      "min": [
        -6.072462558746338,
        -0.0020658208522945642,
        -0.9282646179199219
      ],
      "type": "VEC3"
    },
    {
      "bufferView": 2,
      "byteOffset": 2295444,
      "componentType": 5126,
      "count": 62205,
      "max": [
        0.9999939799308777,
        0.9999991059303284,
        0.9983398914337158
      ],
      "min": [
        -0.9999996423721313,
        -0.9999977350234985,
        -0.9999997615814209
      ],
      "type": "VEC3"
    },
    {
      "bufferView": 1,
      "byteOffset": 516328,
      "componentType": 5126,
      "count": 62205,
      "max": [
        0.9919189810752869,
        0.9920600056648254
      ],
      "min": [
        0.008000999689102173,
        0.007934987545013428
      ],
      "type": "VEC2"
    },
    {
      "bufferView": 0,
      "byteOffset": 1437372,
      "componentType": 5125,
      "count": 337158,
      "type": "SCALAR"
    },
    {
      "bufferView": 2,
      "byteOffset": 3041904,
      "componentType": 5126,
      "count": 36666,
      "max": [
        6.037072658538818,
        2.985265016555786,
        1.504348874092102
      ],
      "min": [
        -6.068271160125732,
        -0.0020658208522945642,
        -0.9180886745452881
      ],
      "type": "VEC3"
    },
    {
      "bufferView": 2,
      "byteOffset": 3481896,
      "componentType": 5126,
      "count": 36666,
      "max": [
        0.999946117401123,
        0.9999992251396179,
        0.8329371809959412
      ],
      "min": [
        -0.9999983310699463,
        -0.9999989867210388,
        -0.9999970197677612
      ],
      "type": "VEC3"
    },
    {
      "bufferView": 1,
      "byteOffset": 1013968,
      "componentType": 5126,
      "count": 36666,
      "max": [
        0.9918889999389648,
        0.9920240044593811
      ],
      "min": [
        0.007935999892652035,
        0.06697601079940796
      ],
      "type": "VEC2"
    },
    {
      "bufferView": 0,
      "byteOffset": 2786004,
      "componentType": 5125,
      "count": 180846,
      "type": "SCALAR"
    }
  ],
  "asset": {
    "extras": {
      "author": "jtressle (https://sketchfab.com/jtressle)",
      "license": "CC-BY-4.0 (http://creativecommons.org/licenses/by/4.0/)",
      "source": "https://sketchfab.com/3d-models/duplex-garage-58295ae3006b4e3fad6686b13371c724",
      "title": "Duplex Garage"
    },
    "generator": "Sketchfab-12.87.0",
    "version": "2.0"
  },
  "bufferViews": [
    {
      "buffer": 0,
      "byteLength": 3509388,
      "name": "floatBufferViews",
      "target": 34963
    },
    {
      "buffer": 0,
      "byteLength": 1307296,
      "byteOffset": 3509388,
      "byteStride": 8,
      "name": "floatBufferViews",
      "target": 34962
    },
    {
      "buffer": 0,
      "byteLength": 3921888,
      "byteOffset": 4816684,
      "byteStride": 12,
      "name": "floatBufferViews",
      "target": 34962
    }
  ],
  "buffers": [
    {
      "byteLength": 8738572,
      "uri": "scene.bin"
    }
  ],
  "extensionsUsed": [
    "KHR_materials_unlit"
  ],
  "images": [
    {
      "uri": "textures/material0000_baseColor.jpeg"
    },
    {
      "uri": "textures/material0001_baseColor.jpeg"
    },
    {
      "uri": "textures/material0002_baseColor.jpeg"
    }
  ],
  "materials": [
    {
      "extensions": {
        "KHR_materials_unlit": {}
      },
      "name": "material0000",
      "pbrMetallicRoughness": {
        "baseColorTexture": {
          "index": 0
        },
        "metallicFactor": 0.0
      }
    },
    {
      "extensions": {
        "KHR_materials_unlit": {}
      },
      "name": "material0001",
      "pbrMetallicRoughness": {
        "baseColorTexture": {
          "index": 1
        },
        "metallicFactor": 0.0
      }
    },
    {
      "extensions": {
        "KHR_materials_unlit": {}
      },
      "name": "material0002",
      "pbrMetallicRoughness": {
        "baseColorTexture": {
          "index": 2
        },
        "metallicFactor": 0.0
      }
    }
  ],
  "meshes": [
    {
      "name": "scan_0",
      "primitives": [
        {
          "attributes": {
            "NORMAL": 1,
            "POSITION": 0,
            "TEXCOORD_0": 2
          },
          "indices": 3,
          "material": 0,
          "mode": 4
        }
      ]
    },
    {
      "name": "scan_1",
      "primitives": [
        {
          "attributes": {
            "NORMAL": 5,
            "POSITION": 4,
            "TEXCOORD_0": 6
          },
          "indices": 7,
          "material": 1,
          "mode": 4
        }
      ]
    },
    {
      "name": "scan_2",
      "primitives": [
        {
          "attributes": {
            "NORMAL": 9,
            "POSITION": 8,
            "TEXCOORD_0": 10
          },
          "indices": 11,
          "material": 2,
          "mode": 4
        }
      ]
    }
  ],
  "nodes": [
    {
      "children": [
        1
      ],
      "matrix": [
        1.0,
        0.0,
        0.0,
        0.0,
        0.0,
        2.220446049250313e-16,
        -1.0,
        0.0,
        0.0,
        1.0,
        2.220446049250313e-16,
        0.0,
        0.0,
        0.0,
        0.0,
        1.0
      ],
      "name": "Sketchfab_model"
    },
    {
      "children": [
        2
      ],
      "matrix": [
        1.0,
        0.0,
        0.0,
        0.0,
        0.0,
        2.220446049250313e-16,
        1.0,
        0.0,
        0.0,
        -1.0,
        2.220446049250313e-16,
        0.0,
        0.0,
        0.0,
        0.0,
        1.0
      ],
      "name": "USDRoot"
    },
    {
      "children": [
        3
      ],
      "name": "AVgfo4aCbUpeNcfWDeZ2"
    },
    {
      "children": [
        4,
        5,
        6
      ],
      "name": "Geom"
    },
    {
      "mesh": 0,
      "name": "scan_0"
    },
    {
      "mesh": 1,
      "name": "scan_1"
    },
    {
      "mesh": 2,
      "name": "scan_2"
    }
  ],
  "samplers": [
    {
      "magFilter": 9729,
      "minFilter": 9987,
      "wrapS": 10497,
      "wrapT": 10497
    }
  ],
  "scene": 0,
  "scenes": [
    {
      "name": "Sketchfab_Scene",
      "nodes": [
        0
      ]
    }
  ],
  "textures": [
    {
      "sampler": 0,
      "source": 0
    },
    {
      "sampler": 0,
      "source": 1
    },
    {
      "sampler": 0,
      "source": 2
    }
  ]
}
